<svg width="353" height="558" viewBox="0 0 353 558" fill="none" xmlns="http://www.w3.org/2000/svg">
<path d="M352.934 11.411V55.3127L87.6351 269.525C85.0488 271.735 83.4671 275.018 83.4671 278.498C83.4671 281.978 85.0488 285.304 87.6351 287.471L352.934 501.727V545.607C352.934 549.962 350.476 553.989 346.586 555.871C342.781 557.753 338.143 557.271 334.851 554.536L4.14664 287.493C1.53896 285.304 0 281.999 0 278.52C0 275.04 1.53896 271.735 4.14664 269.547L334.851 2.48184C338.143 -0.275698 342.781 -0.757172 346.586 1.14684C350.455 3.05085 352.934 7.05584 352.934 11.411Z" fill="#E5E5E5"/>
</svg>
