<svg width="353" height="558" viewBox="0 0 353 558" fill="none" xmlns="http://www.w3.org/2000/svg">
<path d="M3.95895e-05 545.591V501.689L265.299 287.477C267.885 285.267 269.467 281.984 269.467 278.504C269.467 275.024 267.885 271.698 265.299 269.531L3.95895e-05 55.2751V11.3953C3.95895e-05 7.04013 2.45811 3.01325 6.34826 1.13113C10.1529 -0.750999 14.7911 -0.269506 18.0828 2.46614L348.788 269.509C351.395 271.698 352.934 275.002 352.934 278.482C352.934 281.962 351.395 285.267 348.788 287.455L18.0828 554.52C14.7911 557.278 10.1529 557.759 6.34826 555.855C2.47949 553.951 3.95895e-05 549.946 3.95895e-05 545.591Z" fill="#E5E5E5"/>
</svg>
